<?xml version="1.0" encoding="UTF-8" standalone="no"?>
<svg
   width="110mm"
   height="42mm"
   viewBox="0 0 415.74783 158.74016"
   version="1.1"
   id="svg894"
   sodipodi:docname="rails_trk.svg"
   inkscape:version="1.1.2 (b8e25be8, 2022-02-05)"
   inkscape:export-filename="/Volumes/eksterni/Downloads/RailsNS_200x200.png"
   inkscape:export-xdpi="46.18"
   inkscape:export-ydpi="46.18"
   xmlns:inkscape="http://www.inkscape.org/namespaces/inkscape"
   xmlns:sodipodi="http://sodipodi.sourceforge.net/DTD/sodipodi-0.dtd"
   xmlns="http://www.w3.org/2000/svg"
   xmlns:svg="http://www.w3.org/2000/svg">
  <defs
     id="defs898" />
  <sodipodi:namedview
     id="namedview896"
     pagecolor="#ffffff"
     bordercolor="#666666"
     borderopacity="1.0"
     inkscape:pageshadow="2"
     inkscape:pageopacity="0.0"
     inkscape:pagecheckerboard="0"
     showgrid="false"
     inkscape:zoom="5.6568543"
     inkscape:cx="257.21009"
     inkscape:cy="29.079766"
     inkscape:window-width="1819"
     inkscape:window-height="1027"
     inkscape:window-x="64"
     inkscape:window-y="385"
     inkscape:window-maximized="0"
     inkscape:current-layer="g892"
     units="mm"
     width="209mm"
     inkscape:document-units="mm" />
  <g
     fill="#cc0000"
     fill-rule="evenodd"
     transform="translate(8,8)"
     id="g892">
    <path
       d="m 340.1,125.5 v 18.1 h 32.7 c 6.7,0 18.2,-4.9 18.6,-18.6 v -7 c 0,-11.7 -9.6,-18.6 -18.6,-18.6 H 356.5 V 91 h 32.3 V 72.8 h -31 c -8,0 -18.7,6.6 -18.7,18.9 V 98 c 0,12.3 10.6,18.6 18.7,18.6 22.5,0.1 -5.4,0 15.4,0 v 8.8 m -208.3,-4.3 c 0,0 17.5,-1.5 17.5,-24.1 0,-22.6 -21.2,-24.7 -21.2,-24.7 H 123 v 71.3 h 19.2 v -17.2 l 16.6,17.2 h 28.4 z m -7.4,-14.6 H 142.2 V 90.2 h 15.4 c 0,0 4.3,1.6 4.3,8.1 0,6.5 -4.4,8.2 -4.4,8.2 z m 72.3,-33.7 h -19.5 c -13.9,0 -18.6,12.6 -18.6,18.6 v 52.2 h 19.5 v -12.5 h 18.3 v 12.5 h 18.9 V 91.4 c 0,-15.2 -13.8,-18.6 -18.6,-18.6 z m -0.3,38.1 H 211.1 V 93.6 c 0,0 0,-3.9 6.1,-3.9 h 6.7 c 5.4,0 5.5,3.9 5.5,3.9 v 17.3 z"
       id="path878"
       sodipodi:nodetypes="ccscssccccsssccccsccccccccccccscsssccccccsscccssccc" />
    <rect
       width="20.299999"
       height="70.800003"
       x="257.29999"
       y="72.800003"
       id="rect880" />
    <polygon
       points="290.4,121.3 290.4,139.6 310.6,139.6 337.9,139.6 337.9,121.3 310.6,121.3 310.6,68.8 290.4,68.8 "
       id="polygon882"
       transform="translate(-4.5,4)" />
    <path
       d="m 266.87322,-3.28033 -68.45,0.1767766 L 198.6,15 h 26.75 l -0.25,53.3 h 19.2 V 15.1 l 22.97526,-0.15955 z"
       id="path40111"
       sodipodi:nodetypes="ccccccccc" />
    <path
       d="m 313.7,45.05 c 0,0 17.5,-1.5 17.5,-24.1 0,-22.6 -21.2,-24.7 -21.2,-24.7 h -38.2 v 71.3 H 291 v -17.2 l 16.6,17.2 H 336 Z m -7.4,-14.6 H 291 v -16.3 h 15.4 c 0,0 4.3,1.6 4.3,8.1 0,6.5 -4.4,8.2 -4.4,8.2 z"
       id="path40111-7" />
    <path
       d="M 373.12017,35.793398 404.99975,-3.9790674 382.414,-3.7964714 357.85,24.85 357.95711,-3.4 H 339.65 v 71.3 h 19.2 V 50.7 l 16.6,17.2 h 28.4 z"
       id="path40111-79"
       sodipodi:nodetypes="cccccccccccc" />
  </g>
</svg>
